<svg width="1337" height="942" viewBox="0 0 1337 942" fill="none" xmlns="http://www.w3.org/2000/svg">
<g clip-path="url(#clip0_4_6)">
<path d="M1116.31 165.783L1126.21 361.502C1126.97 376.559 1133.1 390.887 1143.52 402.002L1318.71 588.666C1347.1 618.921 1339.79 667.109 1303.64 687.99L1105.34 802.442C1091.17 810.627 1074.38 813.326 1058.28 809.988L732.152 742.624C713.008 738.664 693.047 743.245 677.692 755.123L455.209 927.21C435.339 942.586 408.218 945.445 385.447 934.578L116.354 806.046C87.4558 792.232 72.9342 760.024 82.017 729.804L129.516 571.674C138.091 543.087 125.6 512.477 99.258 497.562L33.8837 460.542C2.86444 442.982 -8.15818 404.381 9.06466 373.611L130.567 156.586C147.029 127.165 183.777 115.002 215.086 128.603L365.994 194.121C388.982 204.099 415.778 200.406 435.049 184.586L640.436 15.9622C661.756 -1.52698 691.978 -4.04826 715.999 9.67674L803.962 59.9248C821.439 69.9034 833.259 87.1972 836.051 106.817L839.985 134.587C847.364 186.575 911.614 208.68 950.556 172.637L1005.2 122.051C1030.31 98.8093 1069.48 98.4897 1094.97 121.341C1107.79 132.829 1115.46 148.791 1116.33 165.783H1116.31Z" stroke="white" stroke-miterlimit="10"/>
<path d="M140.774 787.634C113.562 774.637 100.328 742.943 108.866 714.499C108.939 714.25 153.537 565.14 153.301 565.015C161.387 538.116 149.041 508.979 124.258 494.934C123.986 494.775 62.3648 459.601 62.5098 459.335C33.3216 442.804 24.0032 404.577 40.2108 375.618C40.3558 375.369 155.024 171.003 155.296 171.11C170.796 143.429 206.692 132.545 236.152 145.346C236.352 145.435 378.631 207.065 378.794 206.94C400.44 216.333 427.435 211.379 445.582 196.5C445.763 196.34 639.348 37.6594 639.547 37.7659C659.598 21.3066 688.823 19.3712 711.43 32.2795C711.575 32.3683 794.462 79.8109 794.499 79.9885C810.942 89.3812 822.11 105.894 824.72 124.359C824.793 124.803 829.053 151.135 829.398 150.833C836.341 199.767 897.292 220.133 933.949 186.202C934.167 186.007 985.944 138.386 986.162 138.599C1009.8 116.725 1046.66 116.441 1070.66 137.925C1070.77 138.031 1070.84 138.156 1070.84 138.315C1082.9 149.128 1090.21 165.854 1091.02 181.852C1091.02 181.976 1100.39 366.314 1100.49 366.42C1101.21 380.607 1108.5 395.717 1118.31 406.157C1118.56 406.423 1283.36 582.522 1283.05 582.7C1309.77 611.18 1301.16 657.539 1267.15 677.177C1267.02 677.248 1080.23 784.988 1080.11 784.953C1066.76 792.659 1048.13 794.594 1032.97 791.469C1032.81 791.433 725.68 728.082 725.553 728.188C707.532 724.46 686.811 730.283 672.361 741.452C672.18 741.594 462.551 903.577 462.352 903.471C443.642 917.941 415.777 919.522 394.349 909.277C394.095 909.152 140.72 787.9 140.792 787.634H140.774Z" stroke="white" stroke-miterlimit="10"/>
<path d="M165.212 769.221C139.704 757.041 127.721 725.845 135.734 699.194C135.879 698.696 177.577 558.623 177.105 558.375C184.683 533.162 172.518 505.499 149.277 492.342C148.733 492.04 90.8641 458.695 91.1541 458.163C63.7789 442.662 56.1827 404.825 71.3751 377.677C71.6651 377.162 179.498 185.456 180.042 185.687C194.582 159.728 229.608 150.14 257.255 162.143C257.654 162.321 391.285 220.062 391.611 219.795C411.898 228.602 439.11 222.405 456.133 208.432C456.496 208.13 638.26 59.3211 638.677 59.5697C657.477 44.1402 685.687 42.7907 706.88 54.9C707.188 55.0775 784.999 99.7149 785.053 100.052C800.463 108.859 810.978 124.59 813.426 141.902C813.553 142.807 818.139 167.701 818.828 167.061C825.337 212.924 882.988 231.549 917.343 199.749C917.778 199.341 966.673 154.704 967.126 155.112C989.28 134.604 1023.85 134.338 1046.33 154.491C1046.55 154.686 1046.7 154.97 1046.71 155.272C1058.03 165.41 1064.97 182.899 1065.73 197.903C1065.73 198.169 1074.58 371.108 1074.76 371.303C1075.43 384.602 1083.88 400.493 1093.09 410.294C1093.58 410.827 1248.02 576.361 1247.39 576.734C1272.44 603.438 1262.54 647.951 1230.64 666.364C1230.38 666.506 1055.13 767.535 1054.84 767.481C1042.33 774.708 1021.82 775.897 1007.63 772.968C1007.3 772.897 719.19 713.54 718.918 713.753C702.021 710.255 680.538 717.304 666.995 727.78C666.651 728.046 469.857 879.945 469.458 879.749C451.927 893.314 423.301 893.599 403.214 884.011C402.706 883.762 165.031 769.789 165.194 769.257L165.212 769.221Z" stroke="white" stroke-miterlimit="10"/>
<path d="M189.651 750.809C165.847 739.445 155.132 708.764 162.602 683.888C162.819 683.143 201.616 552.107 200.927 551.717C207.998 528.173 195.996 502.001 174.313 489.714C173.497 489.253 119.381 457.772 119.835 456.955C94.2905 442.485 88.3985 405.021 102.576 379.683C103.011 378.92 204.027 199.874 204.843 200.229C218.404 175.992 252.596 167.701 278.394 178.887C278.992 179.153 403.975 233.005 404.483 232.597C423.428 240.818 450.858 233.36 466.721 220.328C467.283 219.866 637.209 80.965 637.843 81.3202C655.392 66.9205 682.586 66.157 702.366 77.4495C702.819 77.7158 775.572 119.548 775.644 120.063C790.039 128.283 799.883 143.251 802.167 159.409C802.367 160.758 807.28 184.213 808.295 183.272C814.368 226.081 868.72 242.966 900.791 213.279C901.443 212.675 947.474 171.003 948.144 171.607C968.83 152.466 1001.08 152.218 1022.08 171.021C1022.4 171.323 1022.62 171.731 1022.64 172.175C1033.19 181.639 1039.77 199.891 1040.48 213.9C1040.5 214.291 1048.8 375.848 1049.07 376.15C1049.7 388.561 1059.31 405.234 1067.91 414.378C1068.65 415.177 1212.72 570.147 1211.78 570.697C1235.17 595.608 1223.96 638.292 1194.2 655.48C1193.83 655.693 1030.07 750.01 1029.65 749.921C1017.98 756.668 995.625 757.112 982.373 754.378C981.865 754.271 712.772 698.927 712.373 699.229C696.6 695.98 674.356 704.236 661.701 714.02C661.176 714.428 477.254 856.205 476.656 855.921C460.285 868.581 430.934 867.587 412.17 858.62C411.408 858.265 189.433 751.555 189.669 750.773L189.651 750.809Z" stroke="white" stroke-miterlimit="10"/>
<path d="M214.089 732.396C191.989 721.832 182.544 691.683 189.487 668.583C189.778 667.589 225.674 545.591 224.749 545.076C231.312 523.219 219.473 498.521 199.332 487.104C198.244 486.501 147.881 456.849 148.479 455.766C124.766 442.343 120.56 405.251 133.74 381.725C134.32 380.696 228.502 214.309 229.59 214.788C242.189 192.292 275.529 185.279 299.478 195.666C300.276 196.021 416.611 245.985 417.282 245.434C434.868 253.069 462.515 244.369 477.254 232.26C477.997 231.656 636.121 102.645 636.955 103.124C653.253 89.754 679.432 89.5765 697.797 100.07C698.413 100.425 766.072 139.452 766.181 140.126C779.542 147.761 788.715 161.948 790.855 176.951C791.109 178.762 796.366 200.761 797.726 199.519C803.364 239.273 854.398 254.419 884.184 226.844C885.055 226.027 928.22 187.338 929.109 188.137C948.308 170.364 978.257 170.133 997.764 187.587C998.218 187.995 998.472 188.546 998.508 189.132C1008.32 197.921 1014.52 216.937 1015.17 229.934C1015.19 230.466 1022.98 380.625 1023.34 381.015C1023.93 392.538 1034.71 409.992 1042.69 418.479C1043.69 419.527 1177.39 563.95 1176.12 564.678C1197.84 587.813 1185.33 628.651 1157.68 644.613C1157.19 644.897 1004.96 732.503 1004.4 732.396C993.559 738.646 969.356 738.362 957.046 735.823C956.375 735.681 706.3 684.332 705.756 684.758C691.107 681.74 668.101 691.239 656.353 700.312C655.664 700.845 484.578 832.537 483.781 832.165C468.588 843.919 438.475 841.628 421.071 833.319C420.056 832.839 213.781 733.426 214.107 732.361L214.089 732.396Z" stroke="white" stroke-miterlimit="10"/>
<path d="M238.527 713.984C218.114 704.236 209.937 674.602 216.355 653.278C216.736 652.035 249.713 539.075 248.553 538.418C254.608 518.247 242.951 495.023 224.35 484.494C223.009 483.731 176.38 455.926 177.123 454.576C155.223 442.183 152.739 405.482 164.904 383.767C165.629 382.489 252.976 228.762 254.354 229.348C265.975 208.574 298.481 202.857 320.58 212.444C321.578 212.871 429.284 258.964 430.118 258.289C446.343 265.338 474.208 255.377 487.805 244.209C488.73 243.446 635.033 124.324 636.085 124.928C651.132 112.588 676.296 112.996 693.247 122.673C694.008 123.099 756.608 159.338 756.735 160.19C769.063 167.239 777.584 180.644 779.56 194.494C779.886 196.749 785.452 217.327 787.156 215.747C792.359 252.448 840.094 265.853 867.596 240.392C868.684 239.38 908.967 203.656 910.073 204.65C927.803 188.244 955.451 188.031 973.453 204.153C974.015 204.65 974.341 205.342 974.378 206.088C983.424 214.185 989.28 233.982 989.878 245.985C989.914 246.642 997.166 385.419 997.619 385.898C998.163 396.533 1010.11 414.768 1017.47 422.616C1018.7 423.93 1142.04 557.789 1140.48 558.694C1160.53 580.054 1146.73 619.063 1121.21 633.782C1120.59 634.137 979.871 715.049 979.182 714.889C969.174 720.66 943.123 719.63 931.756 717.286C930.922 717.109 699.846 669.773 699.175 670.288C685.65 667.5 661.883 678.224 651.041 686.605C650.171 687.28 491.939 808.869 490.96 808.39C476.928 819.239 446.072 815.67 430.009 807.982C428.758 807.378 238.183 715.245 238.564 713.931L238.527 713.984Z" stroke="white" stroke-miterlimit="10"/>
<path d="M262.966 695.572C244.256 686.641 237.349 657.522 243.223 637.973C243.676 636.481 273.752 532.558 272.375 531.777C277.922 513.276 266.428 491.543 249.387 481.884C247.773 480.961 204.897 455.002 205.786 453.387C185.717 442.023 184.937 405.695 196.087 385.791C196.939 384.247 277.487 243.197 279.119 243.907C289.779 224.873 321.433 220.417 341.701 229.223C342.898 229.738 441.956 271.943 442.953 271.126C457.837 277.589 485.902 266.386 498.375 256.141C499.48 255.235 633.964 146.003 635.233 146.731C649.029 135.403 673.177 136.415 688.714 145.293C689.621 145.808 747.163 179.224 747.308 180.254C758.621 186.717 766.471 199.341 768.266 212.036C768.646 214.753 774.556 233.875 776.587 231.993C781.355 265.622 825.79 277.288 850.99 253.975C852.295 252.767 889.714 220.008 891.037 221.216C907.281 206.177 932.626 205.982 949.124 220.754C949.794 221.358 950.193 222.192 950.248 223.08C958.533 230.502 964.026 251.08 964.57 262.071C964.606 262.852 971.332 390.248 971.876 390.834C972.365 400.582 985.491 419.598 992.235 426.789C993.722 428.369 1106.69 551.663 1104.8 552.764C1123.16 572.348 1108.08 609.511 1084.69 623.005C1083.95 623.431 954.762 697.631 953.928 697.454C944.754 702.745 916.853 700.969 906.429 698.821C905.432 698.608 693.355 655.267 692.558 655.888C680.175 653.331 655.628 665.281 645.693 672.969C644.66 673.768 499.281 785.272 498.084 784.704C485.231 794.647 453.613 789.782 438.892 782.751C437.388 782.023 262.512 697.17 262.984 695.589L262.966 695.572Z" stroke="white" stroke-miterlimit="10"/>
<path d="M287.404 677.159C270.399 669.045 264.76 640.441 270.09 622.667C270.616 620.927 297.792 526.042 296.178 525.119C301.218 508.304 289.888 488.045 274.405 479.274C272.52 478.209 233.397 454.079 234.43 452.197C216.192 441.863 217.117 405.926 227.251 387.833C228.248 386.04 301.962 257.632 303.865 258.467C313.546 241.155 344.366 237.995 362.786 246.002C364.181 246.606 454.592 284.922 455.771 283.964C469.295 289.841 497.577 277.376 508.908 268.072C510.213 267.007 632.876 167.683 634.326 168.517C646.872 158.219 670.005 159.817 684.146 167.878C685.215 168.482 737.663 199.092 737.845 200.3C748.124 206.177 755.321 218.037 756.953 229.579C757.406 232.739 763.643 250.424 766.018 248.24C770.35 278.815 811.486 288.74 834.401 267.54C835.924 266.119 870.46 236.361 872.02 237.746C886.795 224.074 909.837 223.897 924.83 237.32C925.61 238.012 926.081 238.989 926.136 240.037C933.677 246.784 938.79 268.126 939.297 278.104C939.352 279.028 945.534 395.024 946.168 395.699C946.622 404.559 960.889 424.374 967.035 430.908C968.758 432.755 1071.37 545.484 1069.16 546.763C1085.85 564.554 1069.47 599.887 1048.2 612.156C1047.33 612.653 929.671 680.142 928.674 679.947C920.334 684.758 890.584 682.237 881.102 680.284C879.942 680.036 686.883 640.707 685.94 641.417C674.682 639.091 649.374 652.284 640.345 659.262C639.131 660.203 506.605 761.604 505.209 760.93C493.516 769.967 461.155 763.824 447.776 757.432C446.017 756.597 286.842 679.006 287.404 677.177V677.159Z" stroke="white" stroke-miterlimit="10"/>
<path d="M311.842 658.747C296.541 651.431 292.172 623.36 296.976 607.362C297.574 605.374 321.85 519.526 320.019 518.478C324.569 503.351 313.383 484.565 299.442 476.664C297.284 475.439 261.896 453.156 263.111 451.007C246.685 441.703 249.314 406.157 258.433 389.857C259.575 387.816 326.454 272.067 328.648 273.008C337.368 257.437 367.336 255.555 383.906 262.764C385.502 263.456 467.265 297.884 468.606 296.783C480.771 302.074 509.27 288.367 519.477 279.986C520.964 278.761 631.806 189.345 633.474 190.286C644.751 181.017 666.886 183.201 679.613 190.463C680.828 191.156 728.218 218.961 728.417 220.328C737.663 225.619 744.208 236.698 745.676 247.085C746.184 250.708 752.747 266.954 755.466 264.433C759.364 291.954 797.2 300.139 817.813 281.052C819.553 279.436 851.225 252.643 853.002 254.223C866.291 241.919 887.031 241.759 900.537 253.85C901.425 254.649 901.969 255.768 902.024 256.94C908.804 263.012 913.554 285.118 914.007 294.102C914.061 295.15 919.718 399.765 920.443 400.546C920.842 408.518 936.288 429.115 941.817 434.992C943.793 437.105 1036.04 539.27 1033.52 540.726C1048.54 556.741 1030.87 590.228 1011.72 601.272C1010.75 601.84 904.58 662.617 903.456 662.386C895.95 666.719 864.333 663.452 855.812 661.694C854.47 661.41 680.429 626.076 679.359 626.911C669.225 624.816 643.155 639.233 635.033 645.519C633.655 646.584 513.966 737.901 512.389 737.137C501.874 745.269 468.769 737.83 456.713 732.077C454.701 731.118 311.226 660.824 311.86 658.711L311.842 658.747Z" stroke="white" stroke-miterlimit="10"/>
<path d="M336.281 640.334C322.684 633.836 319.565 606.279 323.844 592.057C324.515 589.82 345.889 512.992 343.822 511.838C347.865 498.379 336.861 481.067 324.46 474.054C322.031 472.669 290.395 452.232 291.755 449.818C277.161 441.561 281.494 406.37 289.598 391.899C290.885 389.591 350.947 286.503 353.395 287.568C361.154 273.719 390.251 273.133 404.991 279.543C406.785 280.324 479.919 310.863 481.424 309.638C492.247 314.343 520.946 299.375 530.028 291.936C531.696 290.569 630.719 211.024 632.604 212.107C642.63 203.869 663.75 206.638 675.063 213.084C676.441 213.865 718.754 238.865 718.972 240.409C727.203 245.115 733.077 255.413 734.382 264.646C734.962 268.712 741.851 283.52 744.897 280.697C748.36 305.164 782.896 311.591 801.225 294.635C803.201 292.806 831.972 268.996 833.984 270.771C845.805 259.834 864.242 259.692 876.226 270.434C877.223 271.339 877.839 272.582 877.894 273.914C883.931 279.312 888.318 302.181 888.717 310.171C888.771 311.343 893.92 404.577 894.736 405.447C895.098 412.531 911.705 433.909 916.618 439.129C918.848 441.508 1000.7 533.127 997.873 534.76C1011.23 549 992.253 580.64 975.248 590.459C974.142 591.098 879.507 645.164 878.238 644.915C871.566 648.768 838.1 644.755 830.522 643.193C829.017 642.891 673.993 611.553 672.779 612.476C663.768 610.612 636.937 626.254 629.703 631.847C628.144 633.054 521.326 714.25 519.532 713.398C510.177 720.625 476.329 711.907 465.615 706.793C463.349 705.71 335.573 642.696 336.299 640.334H336.281Z" stroke="white" stroke-miterlimit="10"/>
<path d="M360.719 621.922C348.808 616.24 346.977 589.198 350.711 576.752C351.455 574.266 369.929 506.475 367.626 505.179C371.161 493.407 360.32 477.57 349.479 471.444C346.777 469.917 318.894 451.309 320.399 448.628C307.636 441.402 313.673 406.601 320.762 393.923C322.194 391.367 375.422 300.938 378.159 302.127C384.94 290.018 413.203 290.711 426.111 296.304C428.105 297.174 492.591 323.825 494.259 322.458C503.723 326.577 532.639 310.366 540.58 303.85C542.429 302.323 629.649 232.686 631.734 233.875C640.508 226.667 660.614 230.005 670.512 235.669C672.035 236.539 709.273 258.733 709.527 260.438C716.724 264.539 721.927 274.092 723.087 282.17C723.722 286.698 730.956 300.05 734.346 296.925C737.373 318.338 768.592 323.026 784.636 308.182C786.83 306.158 812.737 285.313 814.949 287.302C825.282 277.731 841.417 277.607 851.914 287C853.038 287.994 853.691 289.397 853.782 290.871C859.057 295.593 863.082 319.226 863.426 326.222C863.499 327.536 868.104 409.371 869.01 410.347C869.318 416.544 887.103 438.703 891.4 443.284C893.865 445.911 965.367 526.983 962.213 528.794C973.906 541.259 953.62 571.07 938.735 579.664C937.503 580.374 854.38 627.728 852.984 627.444C847.146 630.817 811.83 626.059 805.195 624.692C803.527 624.354 667.503 597.011 666.161 598.041C658.275 596.407 630.682 613.293 624.355 618.175C622.633 619.507 528.651 690.618 526.675 689.677C518.498 696.015 483.889 685.984 474.516 681.509C471.996 680.302 359.939 624.567 360.719 621.939V621.922Z" stroke="white" stroke-miterlimit="10"/>
<path d="M385.157 603.509C374.95 598.644 374.388 572.118 377.579 561.447C378.395 558.712 393.968 499.959 391.448 498.539C394.476 488.454 383.797 474.089 374.515 468.834C371.542 467.147 347.412 450.386 349.062 447.438C338.112 441.242 345.871 406.832 351.944 395.965C353.521 393.142 399.914 315.391 402.924 316.687C408.743 306.3 436.155 308.289 447.214 313.083C449.407 314.041 505.246 336.804 507.095 335.295C515.217 338.81 544.351 321.357 551.149 315.782C553.198 314.112 628.579 254.365 630.882 255.679C638.405 249.5 657.496 253.424 665.98 258.271C667.648 259.23 699.827 278.619 700.099 280.501C706.263 284.017 710.814 292.788 711.793 299.713C712.5 304.684 720.042 316.616 723.776 313.154C726.387 331.495 754.288 334.46 768.03 321.73C770.441 319.51 793.483 301.63 795.913 303.814C804.778 295.611 818.593 295.505 827.603 303.566C828.836 304.667 829.561 306.194 829.651 307.827C834.184 311.875 837.828 336.271 838.136 342.255C838.208 343.693 842.288 414.147 843.285 415.212C843.557 420.521 862.502 443.461 866.182 447.385C868.901 450.279 930.033 520.786 926.571 522.775C936.596 533.446 915.022 561.429 902.259 568.797C900.9 569.579 829.307 610.239 827.766 609.919C822.762 612.813 785.597 607.309 779.905 606.137C778.074 605.764 661.049 582.416 659.58 583.57C652.818 582.167 624.464 600.278 619.043 604.468C617.14 605.942 536.011 666.95 533.836 665.902C526.819 671.335 491.467 660.025 483.436 656.19C480.662 654.876 384.305 606.421 385.175 603.527L385.157 603.509Z" stroke="white" stroke-miterlimit="10"/>
<path d="M409.614 585.097C401.111 581.031 401.8 555.037 404.483 546.141C405.371 543.158 418.044 493.443 415.288 491.881C417.808 483.482 407.311 470.592 399.552 466.206C396.307 464.377 375.929 449.445 377.724 446.231C368.605 441.064 378.05 407.027 383.127 397.989C384.849 394.918 424.425 329.808 427.688 331.229C432.529 322.582 459.107 325.849 468.316 329.844C470.727 330.891 517.9 349.766 519.912 348.114C526.674 351.044 556.026 332.347 561.682 327.695C563.912 325.867 627.473 276.027 629.993 277.447C636.266 272.298 654.341 276.808 661.411 280.856C663.242 281.904 690.346 298.488 690.636 300.53C695.766 303.459 699.664 311.449 700.48 317.22C701.242 322.653 709.128 333.129 713.189 329.364C715.364 344.652 739.966 345.877 751.423 335.277C754.052 332.845 774.212 317.948 776.877 320.327C784.256 313.491 795.786 313.402 803.273 320.114C804.615 321.321 805.412 322.99 805.503 324.766C809.274 328.139 812.555 353.299 812.809 358.288C812.882 359.868 816.435 418.923 817.523 420.077C817.74 424.516 837.846 448.237 840.928 451.487C843.901 454.647 894.663 514.59 890.874 516.774C899.232 525.669 876.352 551.805 865.711 557.949C864.224 558.801 804.143 592.749 802.476 592.394C798.306 594.809 759.292 588.559 754.542 587.583C752.547 587.174 654.54 567.839 652.927 569.081C647.289 567.91 618.173 587.245 613.659 590.743C611.574 592.341 543.317 643.264 540.924 642.127C535.086 646.655 498.991 634.066 492.283 630.853C489.256 629.415 408.598 588.24 409.559 585.079L409.614 585.097Z" stroke="white" stroke-miterlimit="10"/>
<path d="M434.052 566.684C427.253 563.435 429.211 537.956 431.351 530.836C432.33 527.605 442.083 486.927 439.092 485.24C441.104 478.511 430.77 467.112 424.57 463.614C421.053 461.625 404.429 448.539 406.387 445.059C399.08 440.922 410.248 407.276 414.309 400.031C416.176 396.693 448.918 344.261 452.471 345.806C456.351 338.881 482.076 343.445 489.437 346.641C492.047 347.777 530.59 362.763 532.766 360.969C538.168 363.313 567.737 343.356 572.27 339.645C574.681 337.656 626.44 297.706 629.159 299.269C634.181 295.15 651.241 300.245 656.897 303.477C658.873 304.613 680.9 318.392 681.227 320.611C685.342 322.955 688.569 330.163 689.222 334.78C690.056 340.657 698.25 349.694 702.674 345.628C704.414 357.862 725.716 357.329 734.871 348.86C737.718 346.232 755.013 334.3 757.896 336.875C763.806 331.406 773.015 331.335 779.016 336.715C780.467 338.011 781.337 339.822 781.427 341.74C784.437 344.439 787.374 370.362 787.573 374.357C787.664 376.061 790.673 423.735 791.852 424.996C792.033 428.547 813.299 453.049 815.764 455.659C818.973 459.086 859.365 508.464 855.268 510.826C861.958 517.946 837.773 542.235 829.271 547.153C827.657 548.077 779.107 575.314 777.276 574.941C773.94 576.858 733.077 569.88 729.288 569.099C727.112 568.655 648.123 553.315 646.382 554.664C641.868 553.741 611.991 574.301 608.383 577.089C606.135 578.829 550.714 619.649 548.14 618.406C543.462 622.028 506.623 608.143 501.257 605.587C497.976 604.024 433.018 570.129 434.052 566.702V566.684Z" stroke="white" stroke-miterlimit="10"/>
<path d="M458.49 548.272C453.396 545.839 456.623 520.875 458.218 515.531C459.27 512.051 466.123 480.41 462.914 478.582C464.437 473.539 454.248 463.614 449.607 460.986C445.818 458.838 432.946 447.598 435.049 443.852C429.574 440.745 442.446 407.489 445.491 402.055C447.504 398.469 473.411 358.679 477.236 360.348C480.136 355.163 505.028 361.005 510.557 363.402C513.368 364.627 543.263 375.724 545.601 373.806C549.662 375.564 579.431 354.364 582.839 351.577C585.432 349.446 625.37 319.386 628.289 321.055C632.042 317.965 648.105 323.647 652.347 326.08C654.468 327.305 671.437 338.278 671.781 340.657C674.863 342.415 677.438 348.86 677.927 352.322C678.834 358.661 687.355 366.26 692.104 361.857C693.41 371.037 711.412 368.764 718.283 362.407C721.347 359.567 735.76 350.618 738.878 353.388C743.302 349.286 750.227 349.233 754.723 353.263C756.282 354.666 757.225 356.619 757.334 358.679C759.6 360.703 762.156 387.389 762.301 390.39C762.392 392.219 764.894 428.511 766.163 429.861C766.289 432.524 788.734 457.808 790.583 459.761C794.045 463.454 824.068 502.267 819.662 504.806C824.666 510.151 799.212 532.612 792.831 536.287C791.109 537.281 754.052 557.807 752.094 557.398C749.592 558.836 706.862 551.113 704.033 550.527C701.695 550.047 641.723 538.719 639.838 540.158C636.466 539.465 605.809 561.251 603.108 563.346C600.678 565.228 558.111 595.945 555.337 594.614C551.838 597.33 514.238 582.167 510.213 580.25C506.696 578.563 457.439 551.947 458.544 548.272H458.49Z" stroke="white" stroke-miterlimit="10"/>
<path d="M482.928 529.859C479.52 528.244 484.016 503.794 485.086 500.226C486.21 496.497 490.162 473.894 486.717 471.941C487.733 468.585 477.725 460.134 474.625 458.394C470.582 456.103 461.445 446.711 463.693 442.68C460.049 440.62 474.625 407.719 476.638 404.097C478.795 400.262 497.885 373.132 501.964 374.907C503.904 371.445 527.943 378.583 531.624 380.181C534.633 381.477 555.881 388.703 558.401 386.644C561.102 387.816 591.088 365.355 593.354 363.491C596.146 361.2 624.246 341.048 627.383 342.841C629.885 340.781 644.932 347.049 647.76 348.665C650.044 349.961 661.937 358.146 662.3 360.703C664.348 361.875 666.252 367.539 666.596 369.847C667.557 376.63 676.423 382.791 681.499 378.086C682.369 384.193 697.072 380.198 701.64 375.955C704.922 372.919 716.47 366.935 719.788 369.918C722.743 367.184 727.348 367.148 730.357 369.829C732.025 371.321 733.04 373.416 733.149 375.635C734.654 376.985 736.847 404.435 736.956 406.423C737.047 408.394 739.023 433.287 740.383 434.743C740.473 436.519 764.078 462.584 765.311 463.898C769.027 467.857 788.679 496.106 783.947 498.823C787.283 502.374 760.524 523.006 756.264 525.456C754.415 526.521 728.889 540.335 726.786 539.909C725.118 540.868 680.538 532.398 678.652 531.99C676.151 531.475 635.178 524.142 633.166 525.705C630.918 525.243 599.5 548.254 597.687 549.657C595.094 551.663 565.381 572.277 562.407 570.857C560.069 572.668 521.725 556.209 519.042 554.93C515.271 553.119 481.714 533.801 482.892 529.842L482.928 529.859Z" stroke="white" stroke-miterlimit="10"/>
<path d="M507.367 511.447C505.663 510.63 511.428 486.714 511.972 484.92C513.168 480.943 514.22 467.378 510.558 465.283C511.065 463.596 501.221 456.636 499.662 455.766C495.347 453.316 489.963 445.769 492.356 441.473C490.525 440.443 506.805 407.932 507.82 406.121C510.122 402.02 522.378 387.567 526.747 389.449C527.708 387.727 550.913 396.125 552.744 396.924C555.953 398.309 568.553 401.647 571.236 399.445C572.596 400.031 602.781 376.328 603.923 375.387C606.897 372.954 623.195 362.674 626.531 364.591C627.782 363.561 641.814 370.415 643.228 371.232C645.657 372.617 652.492 377.979 652.873 380.713C653.906 381.299 655.139 386.182 655.302 387.336C656.335 394.58 665.509 399.286 670.947 394.279C671.383 397.332 682.768 391.597 685.07 389.467C688.569 386.235 697.235 383.217 700.788 386.395C702.257 385.028 704.577 385.01 706.064 386.36C707.859 387.958 708.91 390.177 709.037 392.556C709.799 393.231 711.63 421.444 711.666 422.439C711.775 424.534 713.207 438.046 714.657 439.591C714.694 440.478 739.476 467.325 740.093 467.982C744.045 472.19 753.327 489.892 748.305 492.804C749.973 494.579 721.909 513.365 719.788 514.59C717.812 515.726 703.816 522.846 701.568 522.367C700.734 522.846 654.305 513.613 653.362 513.418C650.697 512.867 628.724 509.547 626.585 511.198C625.461 510.968 593.282 535.204 592.375 535.914C589.601 538.062 572.741 548.574 569.568 547.065C568.408 547.97 529.303 530.232 527.98 529.593C523.955 527.676 506.098 515.62 507.367 511.412V511.447Z" stroke="white" stroke-miterlimit="10"/>
<path d="M684.925 409.531L686.394 438.507C686.502 440.745 687.409 442.858 688.95 444.509L714.875 472.136C719.081 476.611 717.993 483.748 712.645 486.838L683.294 503.777C681.191 504.984 678.707 505.392 676.332 504.895L628.054 494.917C625.225 494.331 622.27 495.005 619.986 496.763L587.045 522.242C584.108 524.515 580.083 524.941 576.711 523.325L536.881 504.292C532.603 502.25 530.445 497.473 531.805 492.999L538.839 469.58C540.108 465.354 538.259 460.808 534.361 458.607L524.68 453.12C520.094 450.528 518.462 444.811 521 440.248L538.984 408.11C541.414 403.76 546.852 401.949 551.494 403.973L573.829 413.668C577.237 415.141 581.207 414.591 584.054 412.247L614.457 387.283C617.611 384.691 622.089 384.318 625.642 386.36L638.659 393.799C641.252 395.273 642.992 397.83 643.409 400.742L643.989 404.861C645.077 412.549 654.595 415.834 660.36 410.489L668.446 402.996C672.162 399.552 677.964 399.516 681.734 402.89C683.638 404.594 684.762 406.956 684.889 409.477L684.925 409.531Z" stroke="white" stroke-miterlimit="10"/>
</g>
<defs>
<clipPath id="clip0_4_6">
<rect width="1337" height="942" fill="white"/>
</clipPath>
</defs>
</svg>
